<?xml version="1.0" standalone="no"?>
<!DOCTYPE svg PUBLIC "-//W3C//DTD SVG 20010904//EN"
 "http://www.w3.org/TR/2001/REC-SVG-20010904/DTD/svg10.dtd">
<svg version="1.0" xmlns="http://www.w3.org/2000/svg"
 width="400.000000pt" height="404.000000pt" viewBox="0 0 400.000000 404.000000"
 preserveAspectRatio="xMidYMid meet">

<g transform="translate(0.000000,404.000000) scale(0.100000,-0.100000)"
fill="#226cdf" stroke="none">
<path d="M1695 3895 c-501 -66 -908 -291 -1142 -632 -28 -39 -72 -90 -99 -111
-103 -83 -173 -176 -238 -314 -95 -201 -135 -381 -143 -653 -7 -215 3 -324 47
-546 50 -247 146 -476 264 -625 34 -44 80 -117 103 -164 63 -132 170 -243 357
-372 228 -157 616 -315 881 -359 124 -21 457 -18 580 4 626 115 1131 481 1400
1018 78 153 130 316 171 529 21 113 30 443 15 579 -47 430 -214 797 -495 1090
-363 376 -868 574 -1455 570 -80 -1 -191 -7 -246 -14z m635 -88 c99 -26 177
-54 115 -41 -16 3 -59 12 -95 19 -183 38 -500 42 -688 9 -47 -8 -87 -13 -89
-11 -4 5 144 34 237 47 36 5 146 7 245 5 152 -3 195 -7 275 -28z m-813 -43
c-3 -3 -12 -4 -19 -1 -8 3 -5 6 6 6 11 1 17 -2 13 -5z m-117 -36 c-14 -6 -61
-27 -105 -46 -159 -69 -277 -145 -443 -285 -51 -42 -86 -66 -77 -53 24 36 149
145 230 201 74 51 255 142 346 174 58 21 90 26 49 9z m1668 -385 c9 -29 8 -32
-4 -22 -8 6 -14 18 -14 26 0 8 -7 28 -16 46 l-15 32 19 -24 c11 -14 24 -40 30
-58z m-933 -72 c83 -38 213 -162 267 -254 l41 -69 -234 -234 c-214 -215 -231
-234 -199 -229 226 38 372 133 535 348 l20 26 68 -42 c279 -174 533 -439 587
-616 26 -81 25 -123 -3 -191 -49 -118 -142 -223 -412 -465 -175 -156 -198
-180 -323 -327 -120 -142 -301 -311 -365 -341 -65 -31 -126 -35 -183 -11 -62
26 -166 117 -276 243 -56 64 -183 199 -283 301 -239 245 -325 352 -398 495
-93 183 -96 345 -9 503 15 28 89 109 186 203 192 187 161 156 410 410 162 166
213 212 263 238 114 59 202 62 308 12z m-1735 -335 c0 -2 -7 -9 -15 -16 -13
-11 -14 -10 -9 4 5 14 24 23 24 12z m3403 -876 c1 -72 -4 -151 -12 -185 -13
-61 -67 -184 -96 -220 -15 -19 -15 -18 -2 10 8 17 20 48 26 70 19 68 51 345
52 450 l1 100 15 -50 c9 -31 15 -98 16 -175z m-176 -632 c-2 -29 -3 -8 -3 47
0 55 1 79 3 53 2 -26 2 -71 0 -100z m-20 -54 c-3 -3 -12 -4 -19 -1 -8 3 -5 6
6 6 11 1 17 -2 13 -5z m-40 -10 c-3 -3 -12 -4 -19 -1 -8 3 -5 6 6 6 11 1 17
-2 13 -5z m-40 -10 c-3 -3 -12 -4 -19 -1 -8 3 -5 6 6 6 11 1 17 -2 13 -5z
m-40 -10 c-3 -3 -12 -4 -19 -1 -8 3 -5 6 6 6 11 1 17 -2 13 -5z m-40 -10 c-3
-3 -12 -4 -19 -1 -8 3 -5 6 6 6 11 1 17 -2 13 -5z m-49 -11 c-28 -7 -21 -31
15 -49 20 -11 27 -19 18 -22 -19 -6 -65 43 -58 62 4 9 14 15 24 15 17 -1 17
-2 1 -6z m-78 -223 c0 -16 -3 -31 -7 -33 -5 -3 -8 12 -8 33 0 21 3 36 8 33 4
-2 7 -17 7 -33z m-2880 -27 c0 -39 -9 -36 -28 10 -10 24 -10 27 8 27 16 0 20
-7 20 -37z m2350 -522 c0 -10 -232 -201 -265 -219 -21 -11 -154 -29 -145 -20
3 3 39 20 80 38 77 33 320 186 320 201 0 5 2 9 5 9 3 0 5 -4 5 -9z m-890 -298
c-43 -3 -78 -9 -82 -16 -5 -8 -8 -6 -8 6 0 15 10 17 83 15 l82 -2 -75 -3z"/>
</g>
</svg>
